<?xml version="1.0" encoding="UTF-8" standalone="no"?>
<svg
   width="35"
   height="35"
   viewBox="0 0 35 35"
   fill="none"
   version="1.1"
   id="svg8"
   sodipodi:docname="app-icon.svg"
   inkscape:version="1.4.3 (0d15f75, 2025-12-25)"
   xml:space="preserve"
   xmlns:inkscape="http://www.inkscape.org/namespaces/inkscape"
   xmlns:sodipodi="http://sodipodi.sourceforge.net/DTD/sodipodi-0.dtd"
   xmlns:xlink="http://www.w3.org/1999/xlink"
   xmlns="http://www.w3.org/2000/svg"
   xmlns:svg="http://www.w3.org/2000/svg"><sodipodi:namedview
     id="namedview8"
     pagecolor="#ffffff"
     bordercolor="#000000"
     borderopacity="0.25"
     inkscape:showpageshadow="2"
     inkscape:pageopacity="0.0"
     inkscape:pagecheckerboard="0"
     inkscape:deskcolor="#d1d1d1"
     inkscape:zoom="7.1788047"
     inkscape:cx="11.840411"
     inkscape:cy="37.262471"
     inkscape:window-width="1512"
     inkscape:window-height="860"
     inkscape:window-x="0"
     inkscape:window-y="38"
     inkscape:window-maximized="0"
     inkscape:current-layer="svg8"
     showgrid="false" /><defs
     id="defs8"><rect
       x="91.226685"
       y="-80.375938"
       width="63.49699"
       height="48.627441"
       id="rect3" /><linearGradient
       id="linearGradient2"
       inkscape:collect="always"><stop
         style="stop-color:#0041a8;stop-opacity:1;"
         offset="0"
         id="stop2" /><stop
         style="stop-color:#00d5ff;stop-opacity:1;"
         offset="1"
         id="stop3" /></linearGradient><rect
       x="68.899963"
       y="-16.327005"
       width="99.270821"
       height="19.133615"
       id="rect2" /><linearGradient
       id="paint0_linear"
       x1="8.6252604"
       y1="14.0888"
       x2="5.56709"
       y2="17.1469"
       gradientUnits="userSpaceOnUse"><stop
         stop-color="#003a8c"
         id="stop5" /><stop
         offset="0.9637"
         stop-color="#096dd9"
         stop-opacity="0"
         id="stop6" /></linearGradient><linearGradient
       id="paint1_linear"
       x1="26.2675"
       y1="14.1279"
       x2="28.7404"
       y2="16.938"
       gradientUnits="userSpaceOnUse"><stop
         stop-color="#003a8c"
         id="stop7" /><stop
         offset="1"
         stop-color="#096dd9"
         stop-opacity="0"
         id="stop8" /></linearGradient><style
       id="style1">.cls-1{fill-rule:evenodd;}</style><linearGradient
       inkscape:collect="always"
       xlink:href="#linearGradient2"
       id="linearGradient3"
       x1="57.000008"
       y1="46.441273"
       x2="57.000008"
       y2="-76.441277"
       gradientUnits="userSpaceOnUse"
       gradientTransform="matrix(0.27384099,0,0,0.27384099,1.8868901,21.666064)" /></defs><g
     id="g4"
     transform="matrix(22.570179,0,0,22.570179,-327,-308.55635)"><g
       id="g3"><path
         d="m 7.592,16.86 c -1.77,0 -3.203,1.434 -3.203,3.204 0,1.77 1.434,3.204 3.203,3.204 1.768,0 3.203,-1.434 3.203,-3.204 0,-1.77 -1.435,-3.204 -3.203,-3.204 z m 0,4.172 c -0.532,0 -0.968,-0.434 -0.968,-0.967 0,-0.533 0.436,-0.967 0.968,-0.967 0.531,0 0.966,0.434 0.966,0.967 0,0.533 -0.434,0.967 -0.966,0.967 z"
         id="path1-3" /><path
         d="M 30.915,17.439 30.391,13.177 C 30.288,12.359 29.573,11.759 28.748,11.804 L 27.6,11.868 24.036,8.657 C 23.692,8.348 23.249,8.178 22.787,8.178 L 15.546,8.177 c -1.625,0 -3.201,0.555 -4.468,1.573 l -4.04,3.246 -5.433,1.358 c -0.698,0.174 -1.188,0.802 -1.188,1.521 v 1.566 C 0.187,17.44 0,17.626 0,17.856 v 2.071 c 0,0.295 0.239,0.534 0.534,0.534 h 3.067 c -0.013,-0.133 -0.04,-0.26 -0.04,-0.396 0,-2.227 1.804,-4.029 4.03,-4.029 2.226,0 4.029,1.802 4.029,4.029 0,0.137 -0.028,0.264 -0.041,0.396 h 8.493 c -0.012,-0.133 -0.039,-0.26 -0.039,-0.396 0,-2.227 1.804,-4.029 4.029,-4.029 2.227,0 4.028,1.802 4.028,4.029 0,0.137 -0.026,0.264 -0.04,0.396 h 2.861 c 0.295,0 0.533,-0.239 0.533,-0.534 V 17.974 C 31.449,17.68 31.21,17.439 30.915,17.439 Z M 20.168,12.202 10.066,12.713 12,11.158 c 1.051,-0.845 2.357,-1.305 3.706,-1.305 h 4.462 z m 1.678,-0.085 V 9.854 h 0.657 c 0.228,0 0.447,0.084 0.616,0.237 l 2.062,1.856 z"
         id="path2-9" /><path
         d="m 24.064,16.86 c -1.77,0 -3.203,1.434 -3.203,3.204 0,1.77 1.434,3.204 3.203,3.204 1.769,0 3.203,-1.434 3.203,-3.204 0,-1.77 -1.434,-3.204 -3.203,-3.204 z m 0,4.172 c -0.533,0 -0.967,-0.434 -0.967,-0.967 0,-0.533 0.434,-0.967 0.967,-0.967 0.531,0 0.967,0.434 0.967,0.967 0,0.533 -0.435,0.967 -0.967,0.967 z"
         id="path3-0" /></g></g><g
     id="g4-5"
     transform="matrix(22.570179,0,0,22.570179,-316,-323.55635)"><g
       id="g3-2"><path
         d="m 7.592,16.86 c -1.77,0 -3.203,1.434 -3.203,3.204 0,1.77 1.434,3.204 3.203,3.204 1.768,0 3.203,-1.434 3.203,-3.204 0,-1.77 -1.435,-3.204 -3.203,-3.204 z m 0,4.172 c -0.532,0 -0.968,-0.434 -0.968,-0.967 0,-0.533 0.436,-0.967 0.968,-0.967 0.531,0 0.966,0.434 0.966,0.967 0,0.533 -0.434,0.967 -0.966,0.967 z"
         id="path1-2" /><path
         d="M 30.915,17.439 30.391,13.177 C 30.288,12.359 29.573,11.759 28.748,11.804 L 27.6,11.868 24.036,8.657 C 23.692,8.348 23.249,8.178 22.787,8.178 L 15.546,8.177 c -1.625,0 -3.201,0.555 -4.468,1.573 l -4.04,3.246 -5.433,1.358 c -0.698,0.174 -1.188,0.802 -1.188,1.521 v 1.566 C 0.187,17.44 0,17.626 0,17.856 v 2.071 c 0,0.295 0.239,0.534 0.534,0.534 h 3.067 c -0.013,-0.133 -0.04,-0.26 -0.04,-0.396 0,-2.227 1.804,-4.029 4.03,-4.029 2.226,0 4.029,1.802 4.029,4.029 0,0.137 -0.028,0.264 -0.041,0.396 h 8.493 c -0.012,-0.133 -0.039,-0.26 -0.039,-0.396 0,-2.227 1.804,-4.029 4.029,-4.029 2.227,0 4.028,1.802 4.028,4.029 0,0.137 -0.026,0.264 -0.04,0.396 h 2.861 c 0.295,0 0.533,-0.239 0.533,-0.534 V 17.974 C 31.449,17.68 31.21,17.439 30.915,17.439 Z M 20.168,12.202 10.066,12.713 12,11.158 c 1.051,-0.845 2.357,-1.305 3.706,-1.305 h 4.462 z m 1.678,-0.085 V 9.854 h 0.657 c 0.228,0 0.447,0.084 0.616,0.237 l 2.062,1.856 z"
         id="path2-7" /><path
         d="m 24.064,16.86 c -1.77,0 -3.203,1.434 -3.203,3.204 0,1.77 1.434,3.204 3.203,3.204 1.769,0 3.203,-1.434 3.203,-3.204 0,-1.77 -1.434,-3.204 -3.203,-3.204 z m 0,4.172 c -0.533,0 -0.967,-0.434 -0.967,-0.967 0,-0.533 0.434,-0.967 0.967,-0.967 0.531,0 0.967,0.434 0.967,0.967 0,0.533 -0.435,0.967 -0.967,0.967 z"
         id="path3-3" /></g></g><g
     id="g4-8"
     transform="matrix(2.8425766,0,0,7.2620929,-299,31.632198)"><g
       id="g3-6"><path
         d="m 7.592,16.86 c -1.77,0 -3.203,1.434 -3.203,3.204 0,1.77 1.434,3.204 3.203,3.204 1.768,0 3.203,-1.434 3.203,-3.204 0,-1.77 -1.435,-3.204 -3.203,-3.204 z m 0,4.172 c -0.532,0 -0.968,-0.434 -0.968,-0.967 0,-0.533 0.436,-0.967 0.968,-0.967 0.531,0 0.966,0.434 0.966,0.967 0,0.533 -0.434,0.967 -0.966,0.967 z"
         id="path1-5" /><path
         d="M 30.915,17.439 30.391,13.177 C 30.288,12.359 29.573,11.759 28.748,11.804 L 27.6,11.868 24.036,8.657 C 23.692,8.348 23.249,8.178 22.787,8.178 L 15.546,8.177 c -1.625,0 -3.201,0.555 -4.468,1.573 l -4.04,3.246 -5.433,1.358 c -0.698,0.174 -1.188,0.802 -1.188,1.521 v 1.566 C 0.187,17.44 0,17.626 0,17.856 v 2.071 c 0,0.295 0.239,0.534 0.534,0.534 h 3.067 c -0.013,-0.133 -0.04,-0.26 -0.04,-0.396 0,-2.227 1.804,-4.029 4.03,-4.029 2.226,0 4.029,1.802 4.029,4.029 0,0.137 -0.028,0.264 -0.041,0.396 h 8.493 c -0.012,-0.133 -0.039,-0.26 -0.039,-0.396 0,-2.227 1.804,-4.029 4.029,-4.029 2.227,0 4.028,1.802 4.028,4.029 0,0.137 -0.026,0.264 -0.04,0.396 h 2.861 c 0.295,0 0.533,-0.239 0.533,-0.534 V 17.974 C 31.449,17.68 31.21,17.439 30.915,17.439 Z M 20.168,12.202 10.066,12.713 12,11.158 c 1.051,-0.845 2.357,-1.305 3.706,-1.305 h 4.462 z m 1.678,-0.085 V 9.854 h 0.657 c 0.228,0 0.447,0.084 0.616,0.237 l 2.062,1.856 z"
         id="path2-76" /><path
         d="m 24.064,16.86 c -1.77,0 -3.203,1.434 -3.203,3.204 0,1.77 1.434,3.204 3.203,3.204 1.769,0 3.203,-1.434 3.203,-3.204 0,-1.77 -1.434,-3.204 -3.203,-3.204 z m 0,4.172 c -0.533,0 -0.967,-0.434 -0.967,-0.967 0,-0.533 0.434,-0.967 0.967,-0.967 0.531,0 0.967,0.434 0.967,0.967 0,0.533 -0.435,0.967 -0.967,0.967 z"
         id="path3-2" /></g></g><path
     class="cls-1"
     d="m 19.097789,23.548944 c -0.03012,0.355993 -0.0712,0.711986 -0.128703,1.06798 -0.391594,2.464569 -1.585541,3.926879 -2.212637,6.071054 -0.750324,2.596013 1.801874,3.713283 3.978911,3.568148 a 10.304636,10.304636 0 0 0 3.212155,-0.821523 12.322843,12.322843 0 0 0 2.552199,-1.467789 C 32.006656,27.91397 30.88117,22.409765 24.826545,19.271548 a 4.1076145,4.1076145 0 0 0 -1.133702,-0.383378 6.0245014,6.0245014 0 0 1 -1.643048,3.03142 v 0 a 6.0491471,6.0491471 0 0 1 -2.952006,1.629354 z M 17.758708,12.956775 a 4.6826807,4.6826807 0 1 1 -4.682682,4.68268 4.6826807,4.6826807 0 0 1 4.682682,-4.68268 z m 5.931397,3.453134 c 0.34504,0.0137 0.692818,0.03834 1.037858,0.07942 2.480998,0.273841 3.9926,1.413019 6.161421,1.944271 2.628873,0.643526 3.63387,-1.963441 3.398366,-4.13226 A 10.233437,10.233437 0 0 0 33.315615,11.132994 12.418688,12.418688 0 0 0 31.73829,8.6465184 C 27.444465,3.3120956 21.997766,4.6813004 19.127913,10.878322 a 3.8721114,3.8721114 0 0 0 -0.273841,0.805093 6.0245014,6.0245014 0 0 1 3.176555,1.673169 v 0 a 6.0436703,6.0436703 0 0 1 1.643048,3.047849 z m -7.366323,-4.655297 c 0,-0.438145 0.03559,-0.879029 0.08489,-1.317174 0.27384,-2.4837375 1.402065,-3.998079 1.916886,-6.1668999 C 18.980034,1.6389268 16.36759,0.64214478 14.201509,0.88312477 A 10.241653,10.241653 0 0 0 11.03317,1.860737 12.20783,12.20783 0 0 0 8.5521717,3.443538 c -5.3152545,4.3047813 -3.9405731,9.748741 2.2509713,12.6049 a 4.0062935,4.0062935 0 0 0 1.029642,0.31218 6.0573624,6.0573624 0 0 1 4.490992,-4.606006 z m -4.518377,7.007592 a 14.269853,14.269853 0 0 1 -1.56637,-0.06573 C 7.752558,18.4555 6.2217879,17.349181 4.0447523,16.85353 1.4049248,16.25108 0.44374402,18.877215 0.71484632,21.040558 a 10.255345,10.255345 0 0 0 1.02416608,3.151909 12.339275,12.339275 0 0 0 1.6183986,2.464571 c 4.3814551,5.24953 9.803507,3.798173 12.572039,-2.439923 a 4.3622868,4.3622868 0 0 0 0.240981,-0.728418 6.0655777,6.0655777 0 0 1 -4.365026,-4.726495 z"
     id="path1-9"
     style="fill:url(#linearGradient3);fill-rule:nonzero;stroke-width:0.27384" /><text
     xml:space="preserve"
     id="text3"
     style="font-style:normal;font-variant:normal;font-weight:bold;font-stretch:normal;font-size:13.3333px;font-family:Helvetica;-inkscape-font-specification:'Helvetica, Bold';font-variant-ligatures:normal;font-variant-caps:normal;font-variant-numeric:normal;font-variant-east-asian:normal;writing-mode:lr-tb;direction:ltr;white-space:pre;shape-inside:url(#rect3);display:inline;fill:#f37726;fill-opacity:1;stroke-width:1.153" /></svg>
